<svg xmlns="http://www.w3.org/2000/svg" id="Layer_1" data-name="Layer 1" version="1.1" viewBox="0 0 100 120"><path fill="#562" d="M45,60c0,2.8,2.2,5,5,5s5-2.2,5-5-2.2-5-5-5-5,2.2-5,5ZM54,60c0,2.2-1.8,4-4,4s-4-1.8-4-4,1.8-4,4-4,4,1.8,4,4ZM40,60c0,5.5,4.5,10,10,10s10-4.5,10-10-4.5-10-10-10-10,4.5-10,10ZM59,60c0,5-4,9-9,9s-9-4-9-9,4-9,9-9,9,4,9,9ZM5,0v120h90V0H5ZM64,1l1,1c0,0,0-.2,0-.3,0,.7.1,1.5.2,2.2l-3.1-2.9h1.9ZM60.6,1l4.9,4.7c0-.1,0-.2,0-.4.2.9.4,1.9.6,2.8l-7.5-7.1h2ZM57.1,1l9.5,9c0-.2-.1-.5-.2-.8.4,1.3.9,2.6,1.5,3.8L55.2,1h1.9ZM53.7,1l15.9,15c0,0,0-.2-.1-.2,2.6,4.3,6.3,7.8,10.7,10.3,0,0,0,0,0,0l8.9,8.4-.8,1L51.8,1h1.9ZM90.4,32.4l.7-.8-2.5-2.3c.8.2,1.6.3,2.4.4l.9.9.6-.7c-.3,0-.7,0-1-.1.3,0,.7,0,1,.1l.4-.5-3.3,4.2-6.4-5.9c1.6.7,3.2,1.2,4.9,1.6-.5-.1-1-.3-1.6-.4l3.8,3.6ZM43.4,1l41.2,38.9.6-.8L44.9,1h1.9l39.2,37,.7-.8L48.3,1h2l37.2,35.2.6-.7-4.3,5.4L41.5,1h1.9ZM36.5,1l45.1,42.6.7-.8L38,1h2l43.2,40.7.4-.5-2.8,3.5L34.6,1h1.9ZM26.2,1l51,48.2.7-.8L27.7,1h2l49.1,46.3.6-.8L31.2,1h1.9l47.1,44.5.5-.6-4.2,5.4L24.3,1h1.9ZM19.3,1l55,51.9.7-.8L20.8,1h2l53,50.1.5-.6-3.1,4,.3-.5L17.4,1h1.9ZM12.5,1l58.9,55.6.7-.8L14,1h2l57,53.8-9.9,12.6c1.2-2.2,2-4.7,2-7.4s-1.2-6.7-3.2-9.2l8.2,7.7.6-.8L10.5,1h2ZM50,74c-7.7,0-14-6.3-14-14s6.3-14,14-14,14,6.3,14,14-6.3,14-14,14ZM6,1h2.9c-.4,1.4-1.5,2.5-2.9,2.9V1ZM6,25c7.5-.3,14.2-3.9,18.5-9.4l-.8-.7c-4.1,5.3-10.5,8.8-17.7,9.1v-9c4.6-.4,8.7-2.8,11.2-6.3l-.7-.7c-2.4,3.4-6.1,5.7-10.5,6v-4.1c3.2-.3,5.9-2.1,7.5-4.7l-.7-.7c-1.4,2.4-3.9,4.1-6.8,4.4v-4c1.8-.3,3.2-1.6,3.7-3.3l-.6-.6,11.1,10.4c-3.3,4.3-8.4,7.2-14.1,7.5v1c6-.2,11.3-3.2,14.8-7.8l6.6,6.2c-5.2,6.3-12.9,10.4-21.5,10.7v-4ZM6,30.8l.7-.8c0,0-.1,0-.2,0,.7,0,1.3,0,2-.2l-2.5,3.1v-2.1ZM6,34.5l3.8-4.9c.8-.1,1.6-.3,2.3-.5,0,0,0,0-.1,0l-6,7.6v-2.3ZM6,38.4l7.5-9.6c1-.3,1.9-.6,2.8-1-.1,0-.3.1-.4.2l-9.9,12.6v-2.2ZM6,42.2l11.7-15c1.2-.6,2.3-1.2,3.4-1.9,0,0-.2.1-.3.2l-14.9,18.9v-2.2ZM6,46l17.7-22.5c1.6-1.3,3.1-2.8,4.5-4.4l-.3-.4.7.7L6,48.2v-2.2ZM6,49.8l23.3-29.7-.5-.5,1.5,1.4L6,52v-2.2ZM6,53.7l25.1-32,1.3,1.3-.4-.3L6,55.8v-2.1ZM6,57.4l26.8-34.1,1,1L6,59.7v-2.3ZM6,65.2l30.3-38.5-.8-.7L6,63.6v-2.3l28.5-36.3-.3-.3,3.4,3.2-.4-.3L6,67.3v-2.1ZM6,68.9l32-40.7,1,1L6,71.1v-2.2ZM6,72.7L39.7,29.9l1,1L6,74.9v-2.2ZM6,76.5L41.4,31.5h0c0,0,1,.9,1,.9L6,78.8v-2.3ZM6,80.4l37.1-47.2-.5-.6,1.5,1.4L6,82.5v-2.1ZM6,84.1l38.8-49.4,1.7,1.6-.7-.6L6,86.4v-2.3ZM6,119v-2.9c1.4.4,2.5,1.5,2.9,2.9h-2.9ZM9.9,119c-.4-2-1.9-3.5-3.9-3.9v-4c4.1.4,7.4,3.7,7.9,7.9h-4ZM14.9,119c-.4-4.7-4.2-8.5-8.9-8.9v-4c6.9.5,12.5,6,12.9,12.9h-4ZM19.9,119c-.4-7.5-6.4-13.5-13.9-13.9v-4c9.7.5,17.4,8.3,17.9,17.9h-4ZM24.9,119c-.5-10.2-8.7-18.4-18.9-18.9v-4.1c12.4.5,22.5,10.5,23,23h-4.1ZM30,119c-.5-13-11-23.5-24-24v-3.3l.5-.7c15,.8,27,12.9,27.5,28h-4ZM10.9,90.6c-.8-.2-1.6-.3-2.4-.4l-.7-.7-.5.6s0,0,0,0l1.5-1.9v.2c-.1,0,2.1,2.2,2.1,2.2ZM15.9,92c.1,0,.2.1.4.2-1.1-.5-2.3-.8-3.5-1.2l-3.6-3.4,1.2-1.5-.3.4,5.8,5.5ZM35.6,119l-.6-.5c0-.8,0-1.5-.2-2.3,0,0,0,0,0,.1l2.8,2.7h-2ZM39,119l-4.4-4.1c-.1-.8-.3-1.6-.5-2.4l6.9,6.5h-2ZM42.5,119l-9-8.5c0,0,0,.1,0,.2-.4-1.1-.8-2.1-1.2-3.2l12.1,11.5h-1.9ZM45.9,119l-14.9-14c-2.9-5-7.2-9.1-12.4-11.8l-7.9-7.5.8-1,36.4,34.3h-2ZM52.8,119L13.6,82.1l-.6.7,38.3,36.2h-1.9L12.2,83.9l-.7.8,2.9-3.7,40.3,38h-1.9ZM56.2,119L15.1,80.2l-.6.7,1.4-1.8,42.3,39.9h-2ZM59.7,119l-43.2-40.7,1-1.3h-.1c0,.1,44.2,41.9,44.2,41.9h-1.9ZM63.1,119l-45.1-42.6.8-1,46.2,43.6h-1.9ZM66.5,119l-47-44.4-.6.7,1.4-1.8,48.2,45.5h-2ZM73.4,119l-51-48.1-.6.8,50.1,47.3h-1.9l-49.1-46.3,2.3-2.9,52.2,49.2h-2ZM76.9,119l-53.1-50,.9-1.1,54.1,51.1h-1.9ZM80.3,119l-55-51.9.8-1,56.1,52.9h-1.9ZM83.7,119l-56.9-53.7-.5.6,1.3-1.7,58.1,54.8h-2ZM94,119h-2.9c.4-1.4,1.5-2.5,2.9-2.9v2.9ZM94,115.1c-1.8.4-3.3,1.8-3.8,3.5l-3.1-3h0c1.4-2.5,3.9-4.3,6.9-4.7v4.1ZM94,110c-3.3.4-6.1,2.3-7.7,5l-2.9-2.7c2.3-3.5,6.2-5.9,10.6-6.1v3.9ZM94,105.1c-4.7.3-8.8,2.8-11.3,6.5l-3-2.8c3.3-4.4,8.4-7.4,14.3-7.7v4ZM94,100.1c-6.2.3-11.6,3.4-15,8l-3.4-3.2.5.4c4.2-5.4,10.6-9,17.9-9.3v4.1ZM94,95c-7.6.3-14.3,4-18.7,9.6l-2.9-2.7c5.1-6.4,12.9-10.6,21.6-10.9v4ZM94,89l-.8,1c-.7,0-1.5.1-2.2.2,0,0,.2,0,.3,0l2.7-3.4v2.2ZM94,85.2l-4,5.2c-.7.1-1.4.3-2.1.4l6.2-7.9v2.2ZM94,81.4l-7.7,9.9c-.8.3-1.7.5-2.5.9l10.2-13v2.2ZM94,77.6l-12.2,15.4c.5-.2,1-.5,1.6-.6-2.5,1.1-4.9,2.5-7,4.2.7-.6,1.5-1.2,2.3-1.7l15.3-19.5v2.3ZM94,73.7l-18.3,23.4c-1.5,1.2-2.8,2.6-4,4.1l-.6-.5,22.9-29.2v2.2ZM94,66.1l-25.3,32.2.7.7,24.6-31.3v2.2l-23.6,30.1-3-2.8.2.2,26.3-33.5v2.2ZM94,62.3l-27.1,34.4-1-.9,28.1-35.7v2.2ZM94,58.5l-28.8,36.6-1-.9,29.8-37.9v2.2ZM94,54.7l-30.5,38.8-1.2-1.1h.2c0,.1,31.5-39.9,31.5-39.9v2.2ZM94,47l-33.9,43.2.7.7,33.2-42.3v2.3l-32.2,41-2.9-2.7h.2c0,.1,34.9-44.4,34.9-44.4v2.2ZM94,43.2l-35.7,45.4-1-.9,36.7-46.7v2.2ZM94,35.6l-39.1,49.7.7.7,38.4-48.8v2.2l-37.4,47.6-2.8-2.7h.1c0,0,40.1-50.9,40.1-50.9v2.2ZM94,31.8l-40.8,52-23.5-22.2-.6.8,60,56.6h-1.9L28.3,63.4l-.6.7,20.5-26.1-.7-.7L6.1,90s0,0,0,0v-2l40.6-51.6,11.9,11.2c-2.4-1.7-5.3-2.6-8.5-2.6-8.3,0-15,6.7-15,15s6.7,15,15,15,7.6-1.6,10.3-4.1l-8.8,11.2.7.7,41.8-53.2v2.2ZM94,28l-.7.9c-14.9-.9-26.8-13-27.3-27.9h4c.5,13,11,23.5,24,24v3ZM94,24c-12.4-.5-22.5-10.6-23-23h4.1c.5,10.2,8.7,18.4,18.9,18.9v4.1ZM94,18.9c-9.7-.5-17.4-8.2-17.9-17.9h4c.4,7.5,6.4,13.5,13.9,13.9v4ZM94,13.9c-6.9-.5-12.5-6-12.9-12.9h4c.4,4.7,4.2,8.5,8.9,8.9v4ZM94,8.9c-4.1-.4-7.4-3.7-7.9-7.9h4c.4,2,1.9,3.5,3.9,3.9v4ZM94,3.9c-1.4-.4-2.5-1.5-2.9-2.9h2.9v2.9Z" opacity=".4"/></svg>
