<svg xmlns="http://www.w3.org/2000/svg" version="1.1" viewBox="0 0 65.75 48"><defs><style>.cls-1{fill:#110}.cls-1,.cls-2,.cls-3{stroke-width:0}.cls-2{fill:#341}.cls-4{opacity:.35}.cls-3{fill:#562}</style></defs><g id="Layer_1" class="cls-4" data-name="Layer 1"><g><path d="M5,42.3h0c0-2.3,1.9-4.1,4.2-4.1s4.1,1.8,4.1,4.1h0c0-2.3,1.8-4.1,4.1-4.1s4.1,1.8,4.1,4.1h0c0-2.3,1.8-4.1,4.1-4.1s4.1,1.8,4.1,4.1h0c0-2.3,1.8-4.1,4.1-4.1s4.1,1.8,4.1,4.1h0c0-2.3,1.8-4.1,4.1-4.1s4.1,1.8,4.1,4.1h0c0-2.3,1.8-4.1,4.1-4.1s4.1,1.8,4.1,4.1h0c0-2.3,1.8-4.1,4.1-4.1s4.1,1.8,4.1,4.1h0c0-2,1.6-3.6,3.5-4V9.6c-1.8-.4-3.4-2-3.4-4h0c0,2.3-1.8,4.1-4.1,4.1s-4.1-1.8-4.1-4.1h0c0,2.3-1.8,4.1-4.1,4.1s-4.1-1.8-4.1-4.1h0c0,2.3-1.8,4.1-4.1,4.1s-4-1.8-4-4.1h0c0,2.3-1.8,4.1-4.1,4.1s-4.1-1.8-4.1-4.1h0c0,2.3-1.8,4.1-4.1,4.1s-4.1-1.8-4.1-4.1h0c0,2.3-1.8,4.1-4.1,4.1s-4.1-1.8-4.1-4.1h0c0,2.3-1.8,4.1-4.1,4.1s-4.3-1.8-4.3-4.1h0c0,2.3-1.8,4.1-4.1,4.1S.3,9.7,0,9.6v28.7c.3,0,.6,0,.9,0,2.2,0,4.1,1.9,4.1,4.1Z" class="cls-2"/><circle cx="38" cy="16.3" r="7.5" class="cls-3"/><circle cx="13.1" cy="31.4" r="7.5" class="cls-3"/><path d="M13.2,44.9c34.5,0,41.6-10.3,47.9-19.4,1.5-2.1,3-4.3,4.9-6.3v-8.1l-1.6,1.3c-3.6,3-6,6.4-8.2,9.6-5.9,8.5-11.5,16.5-41.3,16.8h-1.7c-4.1,0-7.5-3.4-7.5-7.5s3.4-7.5,7.5-7.5h1.1c5.9.1,7.7,1.2,9.7,2.5,2.5,1.6,5.4,3.4,14,3.4s13.5-6.1,13.5-13.5-6-13.4-13.5-13.4C19.9,2.8,8,5.4,0,11.3v7.9l1.7-1.5c4.6-4.1,12.8-8.7,35.3-8.9h1c4.1,0,7.5,3.4,7.5,7.5s-3.4,7.5-7.5,7.5h-.6c-6.4-.1-8.2-1.2-10.3-2.5-2.5-1.6-5.4-3.4-13.9-3.4S1.2,22.6,0,28.8v5.2c1.2,6.2,6.7,10.9,13.2,10.9Z" class="cls-1"/><path d="M37.5,7.8h.4c4.7,0,8.5,3.8,8.5,8.5s-3.8,8.5-8.5,8.5h-.6c-6.7-.1-8.6-1.3-10.8-2.6-2.4-1.5-5.1-3.2-13.4-3.2-6.8,0-12.4,5.6-12.4,12.5s5.6,12.5,12.5,12.5c34,0,40.6-9.6,47.1-18.9,1.7-2.4,3.4-4.9,5.7-7.1v-5.4c-4,3.1-6.5,6.7-9,10.2-5.8,8.2-11.7,16.8-42.1,17.1h-1.6c-4.7,0-8.5-3.8-8.5-8.5s3.8-8.5,8.5-8.5h1.1c6.2.1,8.1,1.3,10.2,2.6,2.4,1.5,5.1,3.3,13.4,3.3s12.5-5.6,12.5-12.5-5.7-12.5-12.6-12.5C17,3.8,6.5,7.5,0,12.5v5.4c5.7-5.5,15.1-9.9,37-10.1h.5Z" class="cls-2"/><path d="M38,6.3c5.5,0,10,4.5,10,10s-4.5,10-10,10h-.6c-7.1-.1-9.3-1.4-11.6-2.9-2.4-1.5-4.8-3-12.6-3h0c-6.1,0-11,4.9-11,11s4.9,11,11,11c33.2,0,39.7-9.3,45.9-18.3,2-2.9,4-5.7,6.9-8.3v-1.4c-3.4,2.8-5.6,6-7.8,9.1-6,8.6-12.2,17.6-43.5,17.9h-1.5c-5.5,0-10-4.5-10-10s4.5-10,10-10h1.1c6.7.1,8.8,1.4,11,2.8,2.4,1.5,4.8,3,12.7,3h0c6.1,0,11-4.9,11-11s-4.9-11-11-11C16.5,5.2,6.2,9.1,0,14.3v1.3C6,10.3,16.7,6.4,38,6.3c.5,0-.2-.1,0,0Z" class="cls-1"/></g></g></svg>
